# xmcd
#
# Track frame offsets: 
#        150
#        17201
#        38234
#        55546
#        78662
#        101058
#        113301
#        118483
#        151816
#        166221
#        187464
#        213182
#        229411
#        250844
#        272206
#
# Disc length: 3938 seconds
#
# Revision: 0
# Processed by: cddbd v1.5PL3 Copyright (c) Steve Scherf et al.
# Submitted via: ExactAudioCopy v0.95a3
#
DISCID=ce0f600f
DTITLE=Hudson, Cary (& Brent Best) - Live - 040219 - Dallas, TX [CD
DTITLE=1 of 3)
DYEAR=2004
DGENRE=Alternative Country
TTITLE0='Soundcheck - Intro -- Cary Hudson'
TTITLE1=August Afternoon -- Cary Hudson
TTITLE2=Papa -- Cary Hudson
TTITLE3=Indianola -- Cary Hudson
TTITLE4=What The Old Man Told Me -- Cary Hudson
TTITLE5=Rye Whiskey -- Cary Hudson
TTITLE6='Soundcheck - Intro -- Brent Best'
TTITLE7=Robert Cole -- Brent Best
TTITLE8=Back -- Brent Best
TTITLE9=Write Me Off -- Brent Best
TTITLE10=Sister Beams -- Brent Best
TTITLE11=Dunk You In The River -- Brent Best
TTITLE12=Butchers -- Brent Best
TTITLE13=Queen Bee -- Brent Best
TTITLE14=Pinball Song -- Brent Best
EXTD=Bearded Honkies with Harmonicas Tour.\nRecorded live at The Barle
EXTD=y House - Dallas, TX on February 19, 2004.\nSoundboard recording.
EXTD=\n---------------------------------------------------------------
EXTD=----\nDisc 01 - Tracks 01-06 =Cary Hudson\nDisc 01 - Tracks 07-
EXTD=15 =Brent Best\n------------------------------------------------
EXTD=-------------------\nDisc 02 - Tracks 01-11 =Cary Hudson\n-----
EXTD=--------------------------------------------------------------\n
EXTD=Disc 03 - Tracks -01-11 =Brent Best \n--------------------------
EXTD=-----------------------------------------
EXTT0=
EXTT1=
EXTT2=
EXTT3=
EXTT4=
EXTT5=
EXTT6=
EXTT7=
EXTT8=
EXTT9=
EXTT10=
EXTT11=
EXTT12=
EXTT13=
EXTT14=
PLAYORDER=
